<svg t="1719498058715" class="icon" viewBox="0 0 1024 1024" version="1.1" xmlns="http://www.w3.org/2000/svg" p-id="8667" width="200" height="200"><path d="M512 159.232c-237.568 0-381.44 263.424-254.464 462.848 28.416 44.544 67.584 80.64 114.176 105.216v91.648c0 19.2 12.8 35.328 30.208 40.704v27.904c0 22.272 17.152 40.448 39.168 42.24v24.832c0 23.296 18.944 42.24 42.24 42.24h57.344c23.296 0 42.24-18.944 42.24-42.24v-24.832c21.76-1.792 39.168-19.968 39.168-42.24v-27.904c17.408-5.12 30.208-21.504 30.208-40.704v-91.648c97.024-51.2 161.024-152.576 161.024-266.752 0-166.144-135.168-301.312-301.312-301.312z m43.776 795.136c0 8.192-6.656 15.104-15.104 15.104h-57.344c-8.192 0-15.104-6.656-15.104-15.104v-24.576h87.552v24.576z m38.912-66.816c0 8.192-6.656 15.104-15.104 15.104h-135.424c-8.192 0-15.104-6.656-15.104-15.104v-26.112h165.632v26.112z m-66.048-53.504h-33.28m-27.392 0h-54.016c-8.192 0-15.104-6.656-15.104-15.104v-99.84c0-5.12-3.072-9.984-7.68-12.288-94.464-46.592-153.344-140.8-153.344-246.016 0-151.04 122.88-273.92 273.92-273.92s273.92 122.88 273.92 273.92c0 105.216-58.88 199.68-153.344 246.016-4.608 2.304-7.68 7.168-7.68 12.288v99.84c0 7.68-5.376 15.104-16.64 15.104H555.52M154.112 444.16H77.568c-7.424 0-13.568 6.144-13.568 13.568s6.144 13.568 13.568 13.568h76.544c7.424 0 13.568-6.144 13.568-13.568 0.256-7.424-5.888-13.568-13.568-13.568zM946.432 444.16h-76.544c-7.424 0-13.568 6.144-13.568 13.568s6.144 13.568 13.568 13.568h76.544c7.424 0 13.568-6.144 13.568-13.568s-6.144-13.568-13.568-13.568zM249.344 701.184L195.328 755.2c-5.376 5.376-5.376 14.08 0 19.2 2.56 2.56 6.144 4.096 9.728 4.096s6.912-1.28 9.728-4.096l54.016-54.016c5.376-5.376 5.376-14.08 0-19.2-5.632-5.376-14.08-5.376-19.456 0zM764.928 218.368c3.584 0 6.912-1.28 9.728-4.096l54.016-54.016c5.376-5.376 5.376-14.08 0-19.2-5.376-5.376-14.08-5.376-19.2 0l-54.016 54.016c-5.376 5.376-5.376 14.08 0 19.2 2.56 2.816 6.144 4.096 9.472 4.096zM774.656 701.184c-5.376-5.376-14.08-5.376-19.2 0-5.376 5.376-5.376 14.08 0 19.2 58.624 58.624 56.32 58.112 63.744 58.112 12.032 0 18.176-14.592 9.728-23.296l-54.272-54.016zM259.072 218.368c3.584 0 6.912-1.28 9.728-4.096 5.376-5.376 5.376-14.08 0-19.2L214.528 141.056c-5.376-5.376-14.08-5.376-19.2 0-5.376 5.376-5.376 14.08 0 19.2 59.136 59.392 56.064 58.112 63.744 58.112zM512 113.664c7.424 0 13.568-6.144 13.568-13.568V23.552c0-7.424-6.144-13.568-13.568-13.568s-13.568 6.144-13.568 13.568V99.84c0 7.68 6.144 13.824 13.568 13.824z" p-id="8668"></path></svg>