<svg t="1719577558068" class="icon" viewBox="0 0 1024 1024" version="1.1" xmlns="http://www.w3.org/2000/svg" p-id="5549" width="200" height="200"><path d="M362.666667 810.666667h-128a42.346667 42.346667 0 0 1-30.165334-12.501334A42.346667 42.346667 0 0 1 192 768V256c0.021333-11.925333 4.693333-22.314667 12.501333-30.165333A42.346667 42.346667 0 0 1 234.666667 213.333333h512c11.925333 0.021333 22.314667 4.693333 30.165333 12.501334 7.786667 7.850667 12.48 18.24 12.501333 30.165333v109.44a42.666667 42.666667 0 0 0 85.333334 0V256a128 128 0 0 0-128-128H234.666667a128 128 0 0 0-128 128v512a128 128 0 0 0 128 128h128a42.666667 42.666667 0 1 0 0-85.333333z" p-id="5550"></path><path d="M725.333333 512H476.693333l67.690667-78.890667a42.666667 42.666667 0 1 0-64.768-55.552l-128 149.141334a42.752 42.752 0 0 0-0.021333 55.530666l128 149.525334a42.666667 42.666667 0 1 0 64.810666-55.509334L476.842667 597.333333H725.333333a106.154667 106.154667 0 0 1 75.434667 31.232A106.154667 106.154667 0 0 1 832 704a106.133333 106.133333 0 0 1-31.232 75.434667A106.133333 106.133333 0 0 1 725.333333 810.666667h-192a42.666667 42.666667 0 0 0 0 85.333333h192a192 192 0 0 0 0-384z" p-id="5551"></path></svg>