<svg t="1719319015381" class="icon" viewBox="0 0 1024 1024" version="1.1" xmlns="http://www.w3.org/2000/svg" p-id="4857" width="200" height="200"><path d="M511.997414 48.614141C256.078869 48.614141 48.614141 256.078869 48.614141 512.002586 48.614141 767.922424 256.078869 975.385859 511.997414 975.385859c255.92501 0 463.389737-207.469899 463.389738-463.383273C975.385859 256.078869 767.921131 48.614141 511.997414 48.614141z m57.24703 493.331394c-0.969697 35.745616-30.025697 64.488727-65.96008 64.488728-36.499394 0-66.142384-29.640404-66.142384-66.165657 0-30.263596 20.389495-55.461495 48.076283-63.389737l146.691878-104.680728-62.665697 169.747394z m187.198061 248.064c-4.328727 4.061091-9.843071 6.061253-15.358707 6.061253a22.512485 22.512485 0 0 1-16.495192-7.166707c-8.499717-9.115152-7.985131-23.403313 1.136485-31.90303 63.44404-59.168323 99.812848-142.885495 99.812848-229.62295 0-173.02497-140.635798-313.806869-313.530181-313.806869S198.42198 354.354424 198.42198 527.379394c0 86.721939 36.408889 170.365414 99.807677 229.562182 9.106101 8.529455 9.590949 22.816323 1.120969 31.937939-8.504889 9.117737-22.758141 9.54699-31.878464 1.101576-72.525576-67.726222-114.111354-163.463758-114.111354-262.615919 0-197.898343 160.903758-358.909414 358.661172-358.909414 197.752242 0 358.615919 161.025293 358.615919 358.909414 0.001293 99.236202-41.6 194.947879-114.195394 262.644363z" p-id="4858"></path></svg>